<svg width="260" height="58" viewBox="0 0 260 58" fill="none" xmlns="http://www.w3.org/2000/svg">
<g clip-path="url(#clip0)">
<path d="M28.5593 0.881348C12.812 0.881348 0 13.6933 0 29.4407C0 45.188 12.812 58 28.5593 58C44.3067 58 57.1186 45.188 57.1186 29.4407C57.1186 13.6933 44.3067 0.881348 28.5593 0.881348Z" fill="#303C42"/>
<path d="M28.5593 3.26123C42.1147 3.26123 53.2938 13.6181 54.6066 26.8337C52.6697 27.2627 47.7495 28.1588 40.3377 28.2403C39.7259 22.2491 34.7093 17.5408 28.5593 17.5408C22.4093 17.5408 17.3927 22.2489 16.7809 28.2403C9.3691 28.1588 4.44887 27.2627 2.51196 26.8337C3.8248 13.6182 15.0039 3.26123 28.5593 3.26123Z" fill="#E53935"/>
<path d="M28.5593 38.9604C33.8169 38.9604 38.079 34.6982 38.079 29.4406C38.079 24.183 33.8169 19.9209 28.5593 19.9209C23.3017 19.9209 19.0396 24.183 19.0396 29.4406C19.0396 34.6982 23.3017 38.9604 28.5593 38.9604Z" fill="#455A64"/>
<path d="M28.5593 55.6201C14.1239 55.6201 2.37988 43.8761 2.37988 29.4407C2.37988 29.3742 2.38948 29.31 2.38992 29.2437C4.6557 29.726 9.55474 30.5318 16.7778 30.6104C17.3754 36.6164 22.3987 41.3403 28.5593 41.3403C34.7199 41.3403 39.7432 36.6164 40.3408 30.6104C47.5639 30.5318 52.4629 29.726 54.7287 29.2437C54.7291 29.31 54.7387 29.3741 54.7387 29.4407C54.7387 43.8761 42.9947 55.6201 28.5593 55.6201Z" fill="white"/>
<path d="M28.5593 36.5806C32.5025 36.5806 35.6991 33.384 35.6991 29.4407C35.6991 25.4975 32.5025 22.3009 28.5593 22.3009C24.616 22.3009 21.4194 25.4975 21.4194 29.4407C21.4194 33.384 24.616 36.5806 28.5593 36.5806Z" fill="#303C42"/>
<path d="M28.5594 34.2006C31.1882 34.2006 33.3193 32.0695 33.3193 29.4407C33.3193 26.8119 31.1882 24.6808 28.5594 24.6808C25.9305 24.6808 23.7994 26.8119 23.7994 29.4407C23.7994 32.0695 25.9305 34.2006 28.5594 34.2006Z" fill="#F2F2F2"/>
<path opacity="0.2" d="M24.7414 30.8785C24.7414 28.2534 26.8761 26.1186 29.5014 26.1186C30.8641 26.1186 32.0861 26.7014 32.9546 27.6218C32.2386 25.8976 30.5401 24.6808 28.5594 24.6808C25.9342 24.6808 23.7994 26.8155 23.7994 29.4407C23.7994 30.7031 24.3016 31.8446 25.106 32.6973C24.8731 32.1363 24.7414 31.5229 24.7414 30.8785Z" fill="white"/>
<path d="M28.5593 0.881348C12.812 0.881348 0 13.6933 0 29.4407C0 45.188 12.812 58 28.5593 58C44.3067 58 57.1186 45.188 57.1186 29.4407C57.1186 13.6933 44.3067 0.881348 28.5593 0.881348Z" fill="url(#paint0_linear)"/>
<path opacity="0.1" d="M49.6151 27.6553C51.9633 27.3702 53.6513 27.0454 54.6066 26.8337C53.9595 20.3192 50.9075 14.5068 46.3627 10.2797C48.6457 14.1635 49.9788 18.6694 49.9788 23.4908C49.9788 24.9113 49.834 26.2956 49.6151 27.6553Z" fill="black"/>
<path opacity="0.1" d="M54.7287 29.2437C53.5524 29.4941 51.6512 29.8301 49.0986 30.1079C46.1557 41.3439 35.9451 49.6702 23.7994 49.6702C16.9062 49.6702 10.6456 46.972 5.96558 42.6016C10.5109 50.3734 18.9245 55.6201 28.5593 55.6201C42.9947 55.6201 54.7388 43.8761 54.7388 29.4407C54.7388 29.3742 54.7292 29.31 54.7287 29.2437Z" fill="black"/>
</g>
<path d="M166.256 43.6102L171.491 13.4858L179.973 13.5065C182.856 13.5754 185.029 14.2858 186.491 15.6375C187.953 16.9892 188.574 18.8513 188.353 21.2238C188.201 22.7962 187.629 24.1686 186.636 25.3411C185.643 26.4997 184.298 27.3825 182.601 27.9894C184.036 28.4308 185.153 29.2928 185.953 30.5756C186.753 31.8446 187.091 33.3067 186.967 34.9619C186.76 37.5826 185.698 39.6792 183.78 41.2516C181.877 42.824 179.387 43.6102 176.311 43.6102H166.256ZM171.304 29.1273L169.153 41.4585L176.394 41.4792C178.573 41.4792 180.401 40.9068 181.877 39.7619C183.367 38.6171 184.229 37.0308 184.463 35.0032C184.642 33.2515 184.242 31.8515 183.263 30.8032C182.298 29.7549 180.884 29.2032 179.022 29.148L171.304 29.1273ZM171.656 26.9963L178.256 27.0169C180.408 26.9894 182.153 26.4445 183.491 25.3824C184.842 24.3204 185.615 22.8997 185.808 21.1203C186.153 17.6306 184.187 15.8168 179.911 15.6789L173.642 15.6582L171.656 26.9963ZM208.96 35.1688H195.76L191.27 43.6102H188.518L204.801 13.4858H207.222L213.036 43.6102H210.532L208.96 35.1688ZM196.898 32.9963H208.546L205.567 16.672L196.898 32.9963ZM220.484 41.4585H234.926L234.553 43.6102H217.567L222.802 13.4858H225.346L220.484 41.4585ZM242.374 41.4585H256.816L256.443 43.6102H239.457L244.691 13.4858H247.236L242.374 41.4585Z" fill="#384349"/>
<path d="M68.2187 33.3894L66.4393 43.6102H59.3634L64.5773 13.4858L75.3981 13.5065C78.7498 13.5065 81.3843 14.4375 83.3016 16.2996C85.2327 18.1617 86.0809 20.5755 85.8465 23.541C85.6809 25.5687 85.0326 27.3273 83.9016 28.817C82.7706 30.3066 81.274 31.4446 79.4119 32.2308C77.5636 33.017 75.4877 33.4101 73.1842 33.4101L68.2187 33.3894ZM69.1911 27.7825L73.4532 27.8238C75.2463 27.7825 76.6188 27.2032 77.5705 26.0859C78.5222 24.9549 78.9015 23.5686 78.7084 21.9272C78.5981 21.0858 78.274 20.4238 77.736 19.941C77.2119 19.4444 76.5153 19.1686 75.6463 19.1134L70.7015 19.0927L69.1911 27.7825ZM98.7776 44.024C95.6466 43.9551 93.1362 42.9206 91.2465 40.9205C89.3568 38.9205 88.2879 36.2446 88.0396 32.8929C87.9016 31.2377 88.0327 29.2928 88.4327 27.0583C88.8327 24.81 89.543 22.741 90.5637 20.8514C91.5844 18.9617 92.8603 17.3893 94.3914 16.1341C96.9569 14.0237 99.9087 13.003 103.247 13.072C105.302 13.1133 107.095 13.5892 108.626 14.4996C110.171 15.3961 111.405 16.6927 112.33 18.3893C113.254 20.0858 113.792 22.0169 113.943 24.1824C114.054 25.7135 113.957 27.4583 113.654 29.417C113.364 31.3618 112.819 33.2239 112.019 35.0032C111.233 36.7688 110.212 38.3274 108.957 39.6792C107.702 41.0309 106.219 42.1068 104.509 42.9068C102.812 43.693 100.902 44.0654 98.7776 44.024ZM106.847 24.1204C106.709 20.672 105.371 18.8789 102.833 18.741C100.874 18.6444 99.2535 19.4238 97.9707 21.0789C96.6879 22.7203 95.8397 25.148 95.4259 28.3618C95.1638 30.348 95.0672 31.886 95.1362 32.9756C95.2741 36.4791 96.6259 38.2791 99.1914 38.3757C100.874 38.4584 102.322 37.8584 103.536 36.5757C104.75 35.2791 105.626 33.4032 106.164 30.948C106.702 28.479 106.929 26.2031 106.847 24.1204ZM127.04 32.4791L123.357 35.9343L122.012 43.6102H114.936L120.15 13.4858H127.247L124.992 26.3756L127.93 22.7962L135.75 13.4858H144.937L132.44 27.1204L139.371 43.6102H131.281L127.04 32.4791ZM161.84 30.8446H150.771L149.509 38.024H162.606L161.633 43.6102H141.461L146.675 13.4858H166.889L165.916 19.0927H152.799L151.682 25.4445H162.771L161.84 30.8446Z" fill="#E95450"/>
<defs>
<linearGradient id="paint0_linear" x1="2.67696" y1="17.3753" x2="54.4421" y2="41.5107" gradientUnits="userSpaceOnUse">
<stop stop-color="white" stop-opacity="0.2"/>
<stop offset="1" stop-color="white" stop-opacity="0"/>
</linearGradient>
<clipPath id="clip0">
<rect width="57.1186" height="57.1186" fill="white" transform="translate(0 0.881348)"/>
</clipPath>
</defs>
</svg>
